<svg id="Layer_1" data-name="Layer 1" xmlns="http://www.w3.org/2000/svg" viewBox="0 0 500 500"><path d="M146.71,265.43A42.58,42.58,0,0,1,140,289q-6.72,10.47-19.54,17.15a93.42,93.42,0,0,1-25,8.57,161.65,161.65,0,0,1-31.11,2.68q-12.94,0-26.6-.46t-15.23-.59q.39-25.12.52-47.43t.14-42.6q0-38.48-.33-60.91T22.52,142q1.83-.14,14.44-.66t24.51-.52a161.89,161.89,0,0,1,24.83,1.77,89.42,89.42,0,0,1,19.22,4.9q11.9,4.72,18.69,13.55T131,182.73a36.59,36.59,0,0,1-8.53,23.88Q113.94,217,103,220.81v1.3a59.88,59.88,0,0,1,17.48,4.26,44.58,44.58,0,0,1,14.88,9.88,39.25,39.25,0,0,1,8.48,12.43Q146.7,255.49,146.71,265.43Zm-22.25.65a29.16,29.16,0,0,0-2.35-12A35.12,35.12,0,0,0,115,244a32.13,32.13,0,0,0-12.24-7.2A50.62,50.62,0,0,0,85.86,234c-4.89,0-8.84,0-11.85.13s-5,.13-6,.13L66,218.58A71.58,71.58,0,0,0,83,216.29a41.93,41.93,0,0,0,13.16-6.08,31.71,31.71,0,0,0,9-10,26.72,26.72,0,0,0,3.54-13.68,24.14,24.14,0,0,0-3.92-13.8,27.32,27.32,0,0,0-10.71-9.23A52.45,52.45,0,0,0,80,159.37,110,110,0,0,0,62.14,158c-4.1,0-7.86.07-11.3.2s-5.64.2-6.6.2q-.39,19.1-.45,40.56t-.07,31.15q0,22.5.2,45.21t.19,24.27l7,.33q4.38.19,8.43.2a232.4,232.4,0,0,0,27.89-1.57Q100.29,297,109.17,292a29.76,29.76,0,0,0,11.31-10.6A28.89,28.89,0,0,0,124.46,266.08Z" style="fill:#4c70d6"/><path d="M161.94,250.51c0-2.72,1.42-4.09,4.26-4.09,2.62,0,3.93,1.37,3.93,4.09v33.25c0,5.89,1.25,10.43,3.76,13.59s6.61,4.75,12.29,4.75q8,0,12.61-5.32a19.29,19.29,0,0,0,4.58-13V250.51c0-2.72,1.42-4.09,4.26-4.09,2.62,0,3.93,1.37,3.93,4.09v54.37q0,4.1-3.93,4.1-4.26,0-4.26-4.1V301a18.34,18.34,0,0,1-7.61,7.45,23.68,23.68,0,0,1-10.57,2.22q-11.79,0-17.52-6.88t-5.73-20Z" style="fill:#4c70d6"/><path d="M275.59,203q0-4.58,3.93-4.58,4.26,0,4.26,4.58V304.56c0,2.94-1.42,4.42-4.26,4.42-2.62,0-3.93-1.48-3.93-4.42v-3.77a22.72,22.72,0,0,1-8,7.29,22.28,22.28,0,0,1-10.65,2.54,22.93,22.93,0,0,1-10.56-2.46,27,27,0,0,1-8.52-6.88,32.52,32.52,0,0,1-5.73-10.4,43.14,43.14,0,0,1,0-26.28,32.4,32.4,0,0,1,5.73-10.48,27,27,0,0,1,8.52-6.88,22.93,22.93,0,0,1,10.56-2.46,21.77,21.77,0,0,1,10.65,2.62,23.65,23.65,0,0,1,8,7.37ZM238.25,277.7q0,11.63,5.41,18a17,17,0,0,0,26.53,0q5.4-6.39,5.4-18v-1.15q-.33-11-5.57-17.11a16.53,16.53,0,0,0-13.1-6.14,16.72,16.72,0,0,0-13.26,6.39Q238.25,266.07,238.25,277.7Z" style="fill:#4c70d6"/><path d="M347.81,300.63a23.59,23.59,0,0,1-8,7.37,21.7,21.7,0,0,1-10.64,2.62,22.93,22.93,0,0,1-10.56-2.46,27,27,0,0,1-8.52-6.88,32.52,32.52,0,0,1-5.73-10.4,43.14,43.14,0,0,1,0-26.28,32.4,32.4,0,0,1,5.73-10.48,27,27,0,0,1,8.52-6.88,22.93,22.93,0,0,1,10.56-2.46,22.21,22.21,0,0,1,10.64,2.54,22.67,22.67,0,0,1,8,7.29v-3.77q0-4.43,3.93-4.42,4.26,0,4.26,4.42v74.84A40.58,40.58,0,0,1,354,338.86a32.61,32.61,0,0,1-5.73,10.4,26.62,26.62,0,0,1-8.6,6.88,23.57,23.57,0,0,1-19.73.57,26.3,26.3,0,0,1-7.78-5.15,56.26,56.26,0,0,1-3.85-4.34,7.86,7.86,0,0,1-2.05-4.83,4,4,0,0,1,1.15-2.95,3.76,3.76,0,0,1,2.78-1.15,3.83,3.83,0,0,1,2.21.74,6,6,0,0,1,1.89,2.54q3.93,8.51,14.9,8.51a16.74,16.74,0,0,0,13.26-6.38q5.42-6.39,5.41-18ZM310.47,277.7q0,11.63,5.4,18a16.76,16.76,0,0,0,13.27,6.39,16.53,16.53,0,0,0,13.1-6.14q5.24-6.13,5.57-17.11V277.7q0-11.62-5.41-18a17,17,0,0,0-26.53,0Q310.47,266.07,310.47,277.7Z" style="fill:#4c70d6"/><path d="M401.36,244.78a23.43,23.43,0,0,1,14.9,5.16,30,30,0,0,1,9.66,14c.33.88.71,2.05,1.15,3.52a15.54,15.54,0,0,1,.65,4.34,5.82,5.82,0,0,1-.81,3.12,3.4,3.4,0,0,1-3.12,1.3h-41.1v1.48q0,11.63,5.4,18a16.76,16.76,0,0,0,13.27,6.39q11,0,14.9-8.52a6,6,0,0,1,1.88-2.53,3.78,3.78,0,0,1,2.21-.74,3.83,3.83,0,0,1,2.79,1.14,4,4,0,0,1,1.15,2.95,7.87,7.87,0,0,1-2.05,4.83,54.65,54.65,0,0,1-3.85,4.34,26.26,26.26,0,0,1-7.78,5.16,23.75,23.75,0,0,1-19.81-.57,26.87,26.87,0,0,1-8.52-6.88,32.33,32.33,0,0,1-5.73-10.4,40.31,40.31,0,0,1-2.05-13.18,39.86,39.86,0,0,1,1.72-11.38,35.78,35.78,0,0,1,5.08-10.57,28.75,28.75,0,0,1,8.35-7.86A21.72,21.72,0,0,1,401.36,244.78Zm0,8.52a15.24,15.24,0,0,0-11.14,4.17,23.42,23.42,0,0,0-6.06,10.24h34.39a21.61,21.61,0,0,0-6.71-10.64A16.06,16.06,0,0,0,401.36,253.3Z" style="fill:#4c70d6"/><path d="M478,250.68c0,2.73-1.37,4.09-4.09,4.09H459.5v49.62q0,4.59-4.26,4.59-3.93,0-3.93-4.59V254.77H437.88q-4.1,0-4.1-4.09,0-4.26,4.1-4.26h13.43V228.24c0-2.72,1.31-4.09,3.93-4.09,2.84,0,4.26,1.37,4.26,4.09v18.18h14.41C476.63,246.42,478,247.84,478,250.68Z" style="fill:#4c70d6"/></svg>
